<svg xmlns="http://www.w3.org/2000/svg" viewBox="12 11 14 14" fill="none">
  <path d="M16.2812 16.8828L19 14.164L21.7202 16.8842L23.3022 15.3022L19 11L14.6992 15.3008L16.2812 16.8828ZM12 18L13.582 16.418L15.164 18L13.582 19.582L12 18ZM16.2812 19.1172L19 21.836L21.7202 19.1158L23.3022 20.6971L19 25L14.6992 20.6992L14.6971 20.6971L16.2812 19.1172ZM22.836 18L24.418 16.418L26 18L24.418 19.582L22.836 18ZM20.6044 17.9986H20.6058V18L19 19.6058L17.3963 18.0028L17.3935 18L17.3963 17.9979L17.677 17.7165L17.8135 17.58L19 16.3942L20.6051 17.9993L20.6044 17.9986Z" fill="#1F1F1F"/>
</svg>
